#Comment line ignore any data following # character 
#Hierarchical Translation and Rotation (.htr) file 
[Header]	
#Header keywords are followed by a single value 
FileType HTR		#Single word string
DataType HTRS		#Translation followed by rotation and scale data
FileVersion 1		#integer
NumSegments 84		#integer
NumFrames 2		#integer
DataFrameRate 30		#integer, data frame rate in this file
EulerRotationOrder ZYX
CalibrationUnits mm
RotationUnits Degrees
GlobalAxisofGravity Y
BoneLengthAxis Y
ScaleFactor 1.00
[SegmentNames&Hierarchy]
#CHILD	PARENT
MASTER GLOBAL
root MASTER
chest root
L_mid_tent01 root
R_mid_tent01 root
spine01 root
Bip01_Neck chest
L_humerus chest
R_humerus chest
weapon_bone chest
Bip01_Head Bip01_Neck
eye_left_bone Bip01_Head
eye_right_bone Bip01_Head
L_forearm L_humerus
L_front_hand L_forearm
L_weapon_bone L_forearm
L_front_hand01_01 L_front_hand
L_front_hand02_01 L_front_hand
L_front_hand03_01 L_front_hand
L_front_hand01_02 L_front_hand01_01
L_front_hand02_02 L_front_hand02_01
L_front_hand03_02 L_front_hand03_01
R_forearm R_humerus
R_front_hand R_forearm
R_weapon_bone R_forearm
R_front_hand01_01 R_front_hand
R_front_hand02_01 R_front_hand
R_front_hand03_01 R_front_hand
R_front_hand01_02 R_front_hand01_01
R_front_hand02_02 R_front_hand02_01
R_front_hand03_02 R_front_hand03_01
null_rope01_connect L_mid_tent01
Rope1_Seg01 null_rope01_connect
Rope1_Seg02 Rope1_Seg01
Rope1_Seg03 Rope1_Seg02
Rope1_Seg04 Rope1_Seg03
Rope1_Seg05 Rope1_Seg04
Rope1_Seg06 Rope1_Seg05
Rope1_Seg07 Rope1_Seg06
Rope1_Seg09 Rope1_Seg07
L_mid_hand01 Rope1_Seg09
L_mid_hand02 Rope1_Seg09
L_mid_hand03 Rope1_Seg09
null_rope02_connect R_mid_tent01
Rope2_Seg01 null_rope02_connect
Rope2_Seg02 Rope2_Seg01
Rope2_Seg03 Rope2_Seg02
Rope2_Seg04 Rope2_Seg03
Rope2_Seg05 Rope2_Seg04
Rope2_Seg06 Rope2_Seg05
Rope2_Seg07 Rope2_Seg06
Rope2_Seg09 Rope2_Seg07
R_mid_hand01 Rope2_Seg09
R_mid_hand02 Rope2_Seg09
R_mid_hand03 Rope2_Seg09
spine02 spine01
spine03 spine02
pelvis spine03
null_rope03_connect pelvis
null_rope04_connect pelvis
Rope3_Seg01 null_rope03_connect
Rope3_Seg02 Rope3_Seg01
Rope3_Seg03 Rope3_Seg02
Rope3_Seg04 Rope3_Seg03
Rope3_Seg05 Rope3_Seg04
Rope3_Seg06 Rope3_Seg05
Rope3_Seg07 Rope3_Seg06
Rope3_Seg08 Rope3_Seg07
Rope3_Seg09 Rope3_Seg08
R_rear_hand01 Rope3_Seg09
R_rear_hand02 Rope3_Seg09
R_rear_hand03 Rope3_Seg09
Rope4_Seg01 null_rope04_connect
Rope4_Seg02 Rope4_Seg01
Rope4_Seg03 Rope4_Seg02
Rope4_Seg04 Rope4_Seg03
Rope4_Seg05 Rope4_Seg04
Rope4_Seg06 Rope4_Seg05
Rope4_Seg07 Rope4_Seg06
Rope4_Seg08 Rope4_Seg07
Rope4_Seg09 Rope4_Seg08
L_rear_hand01 Rope4_Seg09
L_rear_hand02 Rope4_Seg09
L_rear_hand03 Rope4_Seg09
[BasePosition]
#SegmentName Tx, Ty, Tz, Rx, Ry, Rz, BoneLength
MASTER 0.000000 0.000000 0.000000 -90.000000 0.000000 0.000000 10.000000 
root 0.000000 0.000000 0.000000 0.000000 0.000000 0.000000 10.000000 
chest 0.000000 0.000000 0.000000 0.000000 0.000000 0.000000 10.000000 
L_mid_tent01 0.000000 0.000000 0.000000 0.000000 0.000000 0.000000 10.000000 
R_mid_tent01 0.000000 0.000000 0.000000 0.000000 0.000000 0.000000 10.000000 
spine01 0.000000 0.000000 0.000000 0.000000 0.000000 0.000000 10.000000 
Bip01_Neck 0.000000 0.000000 0.000000 0.000000 0.000000 0.000000 10.000000 
L_humerus 0.000000 0.000000 0.000000 0.000000 0.000000 0.000000 10.000000 
R_humerus 0.000000 0.000000 0.000000 0.000000 0.000000 0.000000 10.000000 
weapon_bone 0.000000 0.000000 0.000000 0.000000 0.000000 0.000000 10.000000 
Bip01_Head 0.000000 0.000000 0.000000 0.000000 0.000000 0.000000 10.000000 
eye_left_bone 0.000000 0.000000 0.000000 0.000000 0.000000 0.000000 10.000000 
eye_right_bone 0.000000 0.000000 0.000000 0.000000 0.000000 0.000000 10.000000 
L_forearm 0.000000 0.000000 0.000000 0.000000 0.000000 0.000000 10.000000 
L_front_hand 0.000000 0.000000 0.000000 0.000000 0.000000 0.000000 10.000000 
L_weapon_bone 0.000000 0.000000 0.000000 0.000000 0.000000 0.000000 10.000000 
L_front_hand01_01 0.000000 0.000000 0.000000 0.000000 0.000000 0.000000 10.000000 
L_front_hand02_01 0.000000 0.000000 0.000000 0.000000 0.000000 0.000000 10.000000 
L_front_hand03_01 0.000000 0.000000 0.000000 0.000000 0.000000 0.000000 10.000000 
L_front_hand01_02 0.000000 0.000000 0.000000 0.000000 0.000000 0.000000 10.000000 
L_front_hand02_02 0.000000 0.000000 0.000000 0.000000 0.000000 0.000000 10.000000 
L_front_hand03_02 0.000000 0.000000 0.000000 0.000000 0.000000 0.000000 10.000000 
R_forearm 0.000000 0.000000 0.000000 0.000000 0.000000 0.000000 10.000000 
R_front_hand 0.000000 0.000000 0.000000 0.000000 0.000000 0.000000 10.000000 
R_weapon_bone 0.000000 0.000000 0.000000 0.000000 0.000000 0.000000 10.000000 
R_front_hand01_01 0.000000 0.000000 0.000000 0.000000 0.000000 0.000000 10.000000 
R_front_hand02_01 0.000000 0.000000 0.000000 0.000000 0.000000 0.000000 10.000000 
R_front_hand03_01 0.000000 0.000000 0.000000 0.000000 0.000000 0.000000 10.000000 
R_front_hand01_02 0.000000 0.000000 0.000000 0.000000 0.000000 0.000000 10.000000 
R_front_hand02_02 0.000000 0.000000 0.000000 0.000000 0.000000 0.000000 10.000000 
R_front_hand03_02 0.000000 0.000000 0.000000 0.000000 0.000000 0.000000 10.000000 
null_rope01_connect 0.000000 0.000000 0.000000 0.000000 0.000000 0.000000 10.000000 
Rope1_Seg01 0.000000 0.000000 0.000000 0.000000 0.000000 0.000000 10.000000 
Rope1_Seg02 0.000000 0.000000 0.000000 0.000000 0.000000 0.000000 10.000000 
Rope1_Seg03 0.000000 0.000000 0.000000 0.000000 0.000000 0.000000 10.000000 
Rope1_Seg04 0.000000 0.000000 0.000000 0.000000 0.000000 0.000000 10.000000 
Rope1_Seg05 0.000000 0.000000 0.000000 0.000000 0.000000 0.000000 10.000000 
Rope1_Seg06 0.000000 0.000000 0.000000 0.000000 0.000000 0.000000 10.000000 
Rope1_Seg07 0.000000 0.000000 0.000000 0.000000 0.000000 0.000000 10.000000 
Rope1_Seg09 0.000000 0.000000 0.000000 0.000000 0.000000 0.000000 10.000000 
L_mid_hand01 0.000000 0.000000 0.000000 0.000000 0.000000 0.000000 10.000000 
L_mid_hand02 0.000000 0.000000 0.000000 0.000000 0.000000 0.000000 10.000000 
L_mid_hand03 0.000000 0.000000 0.000000 0.000000 0.000000 0.000000 10.000000 
null_rope02_connect 0.000000 0.000000 0.000000 0.000000 0.000000 0.000000 10.000000 
Rope2_Seg01 0.000000 0.000000 0.000000 0.000000 0.000000 0.000000 10.000000 
Rope2_Seg02 0.000000 0.000000 0.000000 0.000000 0.000000 0.000000 10.000000 
Rope2_Seg03 0.000000 0.000000 0.000000 0.000000 0.000000 0.000000 10.000000 
Rope2_Seg04 0.000000 0.000000 0.000000 0.000000 0.000000 0.000000 10.000000 
Rope2_Seg05 0.000000 0.000000 0.000000 0.000000 0.000000 0.000000 10.000000 
Rope2_Seg06 0.000000 0.000000 0.000000 0.000000 0.000000 0.000000 10.000000 
Rope2_Seg07 0.000000 0.000000 0.000000 0.000000 0.000000 0.000000 10.000000 
Rope2_Seg09 0.000000 0.000000 0.000000 0.000000 0.000000 0.000000 10.000000 
R_mid_hand01 0.000000 0.000000 0.000000 0.000000 0.000000 0.000000 10.000000 
R_mid_hand02 0.000000 0.000000 0.000000 0.000000 0.000000 0.000000 10.000000 
R_mid_hand03 0.000000 0.000000 0.000000 0.000000 0.000000 0.000000 10.000000 
spine02 0.000000 0.000000 0.000000 0.000000 0.000000 0.000000 10.000000 
spine03 0.000000 0.000000 0.000000 0.000000 0.000000 0.000000 10.000000 
pelvis 0.000000 0.000000 0.000000 0.000000 0.000000 0.000000 10.000000 
null_rope03_connect 0.000000 0.000000 0.000000 0.000000 0.000000 0.000000 10.000000 
null_rope04_connect 0.000000 0.000000 0.000000 0.000000 0.000000 0.000000 10.000000 
Rope3_Seg01 0.000000 0.000000 0.000000 0.000000 0.000000 0.000000 10.000000 
Rope3_Seg02 0.000000 0.000000 0.000000 0.000000 0.000000 0.000000 10.000000 
Rope3_Seg03 0.000000 0.000000 0.000000 0.000000 0.000000 0.000000 10.000000 
Rope3_Seg04 0.000000 0.000000 0.000000 0.000000 0.000000 0.000000 10.000000 
Rope3_Seg05 0.000000 0.000000 0.000000 0.000000 0.000000 0.000000 10.000000 
Rope3_Seg06 0.000000 0.000000 0.000000 0.000000 0.000000 0.000000 10.000000 
Rope3_Seg07 0.000000 0.000000 0.000000 0.000000 0.000000 0.000000 10.000000 
Rope3_Seg08 0.000000 0.000000 0.000000 0.000000 0.000000 0.000000 10.000000 
Rope3_Seg09 0.000000 0.000000 0.000000 0.000000 0.000000 0.000000 10.000000 
R_rear_hand01 0.000000 0.000000 0.000000 0.000000 0.000000 0.000000 10.000000 
R_rear_hand02 0.000000 0.000000 0.000000 0.000000 0.000000 0.000000 10.000000 
R_rear_hand03 0.000000 0.000000 0.000000 0.000000 0.000000 0.000000 10.000000 
Rope4_Seg01 0.000000 0.000000 0.000000 0.000000 0.000000 0.000000 10.000000 
Rope4_Seg02 0.000000 0.000000 0.000000 0.000000 0.000000 0.000000 10.000000 
Rope4_Seg03 0.000000 0.000000 0.000000 0.000000 0.000000 0.000000 10.000000 
Rope4_Seg04 0.000000 0.000000 0.000000 0.000000 0.000000 0.000000 10.000000 
Rope4_Seg05 0.000000 0.000000 0.000000 0.000000 0.000000 0.000000 10.000000 
Rope4_Seg06 0.000000 0.000000 0.000000 0.000000 0.000000 0.000000 10.000000 
Rope4_Seg07 0.000000 0.000000 0.000000 0.000000 0.000000 0.000000 10.000000 
Rope4_Seg08 0.000000 0.000000 0.000000 0.000000 0.000000 0.000000 10.000000 
Rope4_Seg09 0.000000 0.000000 0.000000 0.000000 0.000000 0.000000 10.000000 
L_rear_hand01 0.000000 0.000000 0.000000 0.000000 0.000000 0.000000 10.000000 
L_rear_hand02 0.000000 0.000000 0.000000 0.000000 0.000000 0.000000 10.000000 
L_rear_hand03 0.000000 0.000000 0.000000 0.000000 0.000000 0.000000 10.000000 
#Beginning of Data. Separated by tabs
#Fr	Tx	Ty	Tz	Rx	Ry	Rz	SF
[MASTER]
16 0.000000 0.000000 0.000000 0.001660 0.001660 0.001660 0.000000
17 0.000000 0.000000 0.000000 0.001660 0.001660 0.001660 0.000000
[root]
16 -43.476791 -5.140658 1027.503052 -88.461685 -33.504105 -88.167336 1028.435181
17 -48.896126 -3.560801 1054.662598 -88.081520 -32.114067 -87.809418 1055.801392
[chest]
16 -84.512650 -34.090519 0.000000 1.258982 -1.253787 -140.418808 91.129311
17 -84.512650 -34.090519 0.000000 1.080155 -1.093887 -142.956223 91.129311
[L_mid_tent01]
16 27.342024 22.153208 -250.188705 -9.303448 8.152684 56.622639 252.651428
17 27.337307 22.155899 -250.158630 -7.622216 13.508656 60.628223 252.621368
[R_mid_tent01]
16 23.228794 24.509907 226.238495 -176.198181 -18.235468 58.805141 228.744751
17 23.228794 24.509907 226.238495 -178.726852 -24.391478 62.683086 228.744751
[spine01]
16 -0.361383 -0.195265 0.000000 0.001927 0.001340 20.389767 0.410763
17 -0.361383 -0.195265 0.000000 0.001925 0.001343 20.170298 0.410763
[Bip01_Neck]
16 165.484543 71.581718 0.000119 175.896118 1.177290 24.871180 180.302734
17 165.484543 71.581718 0.000119 175.896118 1.177290 24.871183 180.302734
[L_humerus]
16 -13.983130 -135.272980 -120.471481 -159.582535 1.986163 -85.026711 181.680161
17 -13.983130 -135.272980 -120.471481 -178.281967 1.886848 -87.432526 181.680161
[R_humerus]
16 -13.983309 -135.273102 125.287651 145.882553 -4.684187 -81.713120 184.909012
17 -13.983309 -135.273102 125.287651 164.043747 -3.376242 -85.297195 184.909012
[weapon_bone]
16 235.964890 -300.705902 0.000000 0.000000 -89.951546 -128.212341 382.234833
17 235.964890 -300.705902 0.000000 0.000000 -89.951546 -128.212341 382.234833
[Bip01_Head]
16 102.819817 23.735563 5.410298 3.150732 3.423702 -20.839094 105.662491
17 102.819817 23.735571 5.410292 3.150732 3.423702 -20.839094 105.662498
[eye_left_bone]
16 -24.626970 125.451866 -64.772606 0.000000 -90.000000 -99.840431 143.318359
17 -24.626970 125.451866 -64.772606 0.000000 -90.000000 -99.840431 143.318359
[eye_right_bone]
16 -24.626970 125.451866 64.327362 0.000000 -89.960434 80.159386 143.117676
17 -24.626970 125.451866 64.327362 0.000000 -89.960434 80.159386 143.117676
[L_forearm]
16 322.776093 0.000000 -0.000119 0.000017 0.002347 -89.149834 322.776093
17 322.776093 0.000000 -0.000119 0.000017 0.002347 -89.149834 322.776093
[L_front_hand]
16 241.149185 -0.042021 -3.300071 -177.799240 0.548319 -95.449562 241.171753
17 241.149185 -0.042021 -3.300071 -177.816269 0.613598 -97.055893 241.171753
[L_weapon_bone]
16 154.574966 11.592732 0.000248 0.002069 0.001109 33.597229 155.009064
17 154.392334 12.907983 0.000281 0.002058 0.001129 32.508732 154.930969
[L_front_hand01_01]
16 86.095154 20.947098 -0.655860 0.405585 -0.442306 -4.620490 88.609184
17 86.095154 20.947098 -0.655860 0.405585 -0.442306 -4.620490 88.609184
[L_front_hand02_01]
16 86.935165 -11.437475 24.513514 116.959450 3.630817 1.495453 91.046425
17 86.935165 -11.437475 24.513514 116.959450 3.630817 1.495453 91.046425
[L_front_hand03_01]
16 86.637497 -14.123976 -20.424902 -118.420097 -4.656303 -0.152527 90.126129
17 86.637497 -14.123976 -20.424902 -118.420097 -4.656303 -0.152527 90.126129
[L_front_hand01_02]
16 71.020905 -0.000179 0.000030 0.000004 -0.000005 -8.379269 71.020905
17 71.020905 -0.000179 0.000030 0.000004 -0.000005 -8.379269 71.020905
[L_front_hand02_02]
16 71.020927 -0.000119 0.000060 -0.000005 -0.000004 -8.379259 71.020927
17 71.020927 -0.000119 0.000060 -0.000005 -0.000004 -8.379259 71.020927
[L_front_hand03_02]
16 71.020905 -0.000060 0.000060 0.000015 -0.000040 -8.379267 71.020905
17 71.020905 -0.000060 0.000060 0.000015 -0.000040 -8.379267 71.020905
[R_forearm]
16 322.776428 -0.000060 0.000030 0.212431 0.003152 -91.551811 322.776428
17 322.776428 -0.000060 0.000030 0.211573 0.001826 -91.313240 322.776428
[R_front_hand]
16 238.847015 -0.006795 2.210259 -1.702711 -0.301363 -88.761795 238.857239
17 238.847015 -0.006795 2.210259 -1.703040 -0.300958 -88.756142 238.857239
[R_weapon_bone]
16 155.664093 0.002503 -0.000030 0.003241 0.001744 -110.175621 155.664078
17 155.664093 0.002503 -0.000030 0.003238 0.001750 -110.392578 155.664078
[R_front_hand01_01]
16 87.624611 14.231146 22.918642 -116.960213 3.496675 -1.324139 91.683487
17 87.624611 14.231146 22.918642 -116.960213 3.496675 -1.324139 91.683487
[R_front_hand02_01]
16 89.356956 14.367283 -19.491137 118.419632 -4.257088 0.609827 92.579636
17 89.356956 14.367283 -19.491137 118.419647 -4.257089 0.609827 92.579636
[R_front_hand03_01]
16 87.286232 -22.307278 -0.143439 -0.387970 -0.231462 4.232001 90.091743
17 87.286232 -22.307278 -0.143439 -0.387970 -0.231462 4.232001 90.091743
[R_front_hand01_02]
16 71.020905 0.000060 0.000119 -0.000005 -0.000020 8.379271 71.020905
17 71.020905 0.000060 0.000119 -0.000005 -0.000020 8.379271 71.020905
[R_front_hand02_02]
16 71.020844 -0.000030 -0.000119 0.000000 -0.000021 8.379271 71.020836
17 71.020844 -0.000030 -0.000119 0.000000 -0.000021 8.379271 71.020836
[R_front_hand03_02]
16 71.020905 0.000000 0.000030 -0.000001 -0.000020 8.379275 71.020905
17 71.020905 0.000000 0.000030 -0.000001 -0.000020 8.379275 71.020905
[null_rope01_connect]
16 328.732483 0.000000 -0.000238 -173.972382 -79.468422 -119.598824 328.732483
17 328.732483 0.000000 -0.000238 -156.772690 -77.456276 -142.426559 328.732483
[Rope1_Seg01]
16 0.000044 -0.000060 0.000065 103.786438 -34.485439 175.489731 0.000099
17 0.000041 -0.000059 0.000070 108.151718 -37.747662 168.119080 0.000100
[Rope1_Seg02]
16 139.999863 -0.000179 0.000000 0.606225 -12.949192 -2.431611 139.999863
17 139.999863 -0.000179 0.000000 -1.027118 -15.306038 -2.335710 139.999863
[Rope1_Seg03]
16 139.999924 0.000060 -0.000060 -2.217859 -48.013958 -17.885033 139.999924
17 139.999924 0.000060 -0.000060 -10.109021 -50.207661 -17.708517 139.999924
[Rope1_Seg04]
16 139.999924 -0.000060 -0.000119 -15.649953 -40.869625 -17.130501 139.999924
17 139.999924 -0.000060 -0.000119 -17.092686 -33.320610 -16.908506 139.999924
[Rope1_Seg05]
16 139.999832 0.000119 -0.000060 -0.900762 -12.221338 15.183217 139.999832
17 139.999832 0.000119 -0.000060 -2.923276 -10.212450 7.768412 139.999832
[Rope1_Seg06]
16 139.999954 0.000119 -0.000060 -3.538212 -7.737389 5.802532 139.999954
17 139.999954 0.000119 -0.000060 -4.359159 -5.911137 0.895850 139.999954
[Rope1_Seg07]
16 139.999985 0.000060 0.000000 -4.143498 -4.703003 2.301805 139.999985
17 139.999985 0.000060 0.000000 -3.332122 -3.543059 -0.053667 139.999985
[Rope1_Seg09]
16 121.602913 0.000119 -0.000089 -89.793175 -1.359789 0.847147 121.602913
17 121.602913 0.000119 -0.000089 -89.793175 -1.359789 0.847147 121.602913
[L_mid_hand01]
16 103.859421 1.038730 8.195221 104.352036 0.341479 -0.444583 104.187431
17 103.859421 1.038730 8.195221 104.352036 0.341479 -0.444583 104.187431
[L_mid_hand02]
16 105.572853 -4.139662 -10.864139 -135.608444 3.905687 -3.381056 106.211075
17 105.572853 -4.139662 -10.864139 -135.608444 3.905687 -3.381056 106.211075
[L_mid_hand03]
16 104.641464 17.579376 -3.913581 -18.761515 -0.324361 2.942912 106.179977
17 104.641464 17.579376 -3.913581 -18.761518 -0.324361 2.942912 106.179977
[null_rope02_connect]
16 328.732849 0.000179 -0.000119 -125.764824 68.464462 -9.735479 328.732849
17 328.732849 0.000179 -0.000119 -122.860855 61.996346 -1.891168 328.732849
[Rope2_Seg01]
16 0.000136 0.000114 -0.000065 -20.097130 -36.067570 0.833861 0.000190
17 0.000135 0.000114 -0.000070 -22.412954 -38.529636 4.492260 0.000190
[Rope2_Seg02]
16 139.999741 -0.000060 -0.000119 -4.244651 2.494731 12.792196 139.999756
17 139.999741 -0.000060 -0.000119 -4.107839 3.056497 17.090744 139.999756
[Rope2_Seg03]
16 140.000107 0.000030 0.000000 -4.519179 12.209110 53.522446 140.000107
17 140.000107 0.000030 0.000000 1.071266 12.040901 59.646839 140.000107
[Rope2_Seg04]
16 139.999802 0.000000 -0.000060 3.432533 -7.572241 44.739704 139.999802
17 139.999802 0.000000 -0.000060 4.463502 -9.057899 35.683464 139.999802
[Rope2_Seg05]
16 139.999985 -0.000060 0.000119 -4.201008 -23.044733 6.866518 139.999985
17 139.999985 -0.000060 0.000119 0.135840 -15.171105 9.158823 139.999985
[Rope2_Seg06]
16 139.999893 -0.000030 -0.000119 0.479051 -7.413803 4.035495 139.999893
17 139.999893 -0.000030 -0.000119 2.618602 -3.905109 4.744853 139.999893
[Rope2_Seg07]
16 139.999893 0.000060 -0.000060 0.818764 -3.656302 2.311311 139.999893
17 139.999893 0.000060 -0.000060 1.888033 -2.017815 2.744015 139.999893
[Rope2_Seg09]
16 121.338966 0.000089 -0.000060 33.793236 -1.359788 -0.847141 121.338966
17 121.338966 0.000089 -0.000060 33.793236 -1.359788 -0.847141 121.338966
[R_mid_hand01]
16 104.680779 11.144459 -10.335981 -47.384243 2.963521 5.452602 105.778534
17 104.680779 11.144459 -10.335981 -47.384258 2.963522 5.452604 105.778534
[R_mid_hand02]
16 104.070427 2.443552 8.231699 75.626305 -2.250001 1.111093 104.424065
17 104.070427 2.443552 8.231699 75.626297 -2.250001 1.111093 104.424065
[R_mid_hand03]
16 106.028137 -11.221827 -5.996406 -164.381927 2.495983 -6.140520 106.788818
17 106.028137 -11.221827 -5.996406 -164.381927 2.495984 -6.140522 106.788818
[spine02]
16 129.756927 0.001550 0.000119 -1.288072 -3.874258 10.481872 129.756927
17 129.756927 0.001550 0.000119 -1.227301 -3.886937 9.560914 129.756927
[spine03]
16 78.970337 0.025337 -1.420021 -0.682058 4.596792 -17.521687 78.983101
17 78.956329 0.027792 -1.556926 -0.691173 4.555336 -17.656773 78.971687
[pelvis]
16 169.435242 0.051022 0.000000 -5.117768 -2.372016 9.566351 169.435257
17 169.435242 0.051022 0.000000 -4.870063 -2.295161 9.030276 169.435257
[null_rope03_connect]
16 -1.257226 -2.466202 137.391083 144.796539 -84.231087 -43.990990 137.418976
17 -1.257226 -2.466202 137.391083 136.653717 -84.404694 -35.410053 137.418976
[null_rope04_connect]
16 -1.259640 -2.480268 -137.844437 144.796539 -84.231087 -43.990990 137.872513
17 -1.259640 -2.480268 -137.844437 136.653717 -84.404694 -35.410053 137.872513
[Rope3_Seg01]
16 -0.000044 0.000049 -0.000005 -130.613235 -48.519623 -85.066544 0.000066
17 -0.000043 0.000045 -0.000005 -131.026413 -50.793114 -84.908203 0.000062
[Rope3_Seg02]
16 139.999924 -0.000119 0.000060 -1.131504 3.921112 -5.884157 139.999924
17 139.999924 -0.000119 0.000060 -0.924819 2.931623 -5.045286 139.999924
[Rope3_Seg03]
16 139.999924 -0.000119 0.000119 -2.577526 6.154409 -8.958914 139.999924
17 139.999924 -0.000119 0.000119 -1.938212 4.403548 -7.359280 139.999924
[Rope3_Seg04]
16 139.999924 0.000119 0.000000 -6.207510 10.316142 -13.947176 139.999924
17 139.999924 0.000119 0.000000 -4.432775 7.052960 -11.312021 139.999924
[Rope3_Seg05]
16 139.999924 -0.000238 0.000060 -10.728028 14.830728 -17.019793 139.999924
17 139.999924 -0.000238 0.000060 -10.038944 11.659662 -17.455425 139.999924
[Rope3_Seg06]
16 139.999893 -0.000119 -0.000060 -8.646036 13.064478 -11.683642 139.999893
17 139.999893 -0.000119 -0.000060 -9.846231 12.942142 -12.094962 139.999893
[Rope3_Seg07]
16 139.999771 0.000060 -0.000119 -5.682712 10.042497 -7.202453 139.999771
17 139.999771 0.000060 -0.000119 -4.551681 8.846567 -4.114242 139.999771
[Rope3_Seg08]
16 139.999985 -0.000060 0.000000 -3.190633 7.015148 -3.946975 139.999985
17 139.999985 -0.000060 0.000000 -2.799608 6.371022 -2.963819 139.999985
[Rope3_Seg09]
16 90.185997 -0.000179 -0.000060 89.793228 -1.359877 -0.847183 90.185997
17 90.185997 -0.000179 -0.000060 89.793228 -1.359877 -0.847183 90.185997
[R_rear_hand01]
16 103.366196 -6.073594 -10.757982 -156.049316 6.070419 -2.795869 104.101845
17 103.366196 -6.073594 -10.757982 -156.049316 6.070419 -2.795869 104.101845
[R_rear_hand02]
16 100.509819 12.039542 -7.992327 -38.708431 1.958051 5.461185 101.543350
17 100.509819 12.039542 -7.992327 -38.708435 1.958051 5.461186 101.543350
[R_rear_hand03]
16 101.539970 5.215704 5.435467 84.307632 -2.361033 4.099037 101.819031
17 101.539970 5.215704 5.435467 84.307625 -2.361032 4.099037 101.819031
[Rope4_Seg01]
16 -0.000012 -0.000005 -0.000109 31.268282 -46.289574 -74.143593 0.000110
17 -0.000013 -0.000011 -0.000111 31.375679 -50.529007 -74.697189 0.000112
[Rope4_Seg02]
16 139.999985 0.000060 0.000119 -0.461022 -10.465525 2.502449 139.999985
17 139.999985 0.000060 0.000119 -0.134825 -8.080218 1.721758 139.999985
[Rope4_Seg03]
16 139.999924 0.000000 -0.000238 2.066580 -23.925337 5.851849 139.999924
17 139.999924 0.000000 -0.000238 1.229903 -16.126024 3.499629 139.999924
[Rope4_Seg04]
16 139.999985 0.000000 0.000119 19.153328 -40.341637 7.582541 139.999985
17 139.999985 0.000000 0.000119 11.076395 -33.978504 5.101677 139.999985
[Rope4_Seg05]
16 139.999802 -0.000060 -0.000119 26.683712 -16.610727 17.021536 139.999802
17 139.999802 -0.000060 -0.000119 28.238430 -26.855932 13.462783 139.999802
[Rope4_Seg06]
16 139.999924 0.000000 0.000060 16.488756 3.493041 22.536688 139.999924
17 139.999924 0.000000 0.000060 20.331079 -0.833957 22.622911 139.999924
[Rope4_Seg07]
16 139.999802 0.000000 0.000000 6.437351 6.610837 15.246202 139.999802
17 139.999802 0.000000 0.000000 8.513529 7.346809 17.351744 139.999802
[Rope4_Seg08]
16 139.999924 0.000000 0.000119 0.348877 3.038017 6.916803 139.999924
17 139.999924 0.000000 0.000119 1.020669 3.227871 7.988021 139.999924
[Rope4_Seg09]
16 90.185791 0.000060 0.000060 -135.617828 2.228885 0.850567 90.185791
17 90.185791 0.000060 0.000060 -135.617828 2.228885 0.850567 90.185791
[L_rear_hand01]
16 101.696655 -8.392275 -7.654577 -38.746338 0.246096 177.290207 102.329041
17 101.696655 -8.392275 -7.654577 -38.746349 0.246096 177.290207 102.329041
[L_rear_hand02]
16 102.726799 -1.568258 5.773216 84.315155 -1.142796 176.247437 102.900848
17 102.726799 -1.568258 5.773216 84.315163 -1.142796 176.247437 102.900848
[L_rear_hand03]
16 104.552910 9.721220 -10.420293 -155.747955 -4.630844 179.564758 105.519653
17 104.552910 9.721220 -10.420293 -155.747955 -4.630845 179.564758 105.519653
